<svg width="779" height="192" viewBox="0 0 779 192" fill="none" xmlns="http://www.w3.org/2000/svg">
<g clip-path="url(#clip0_35_921)">
<path d="M45.2305 85.2091L125.585 170.625L125.585 -0.207028L45.2305 85.2091Z" fill="#121212"/>
<path d="M45.5547 85.2093L-0.000582236 145.001L-0.000587463 25.418L45.5547 85.2093Z" fill="#121212"/>
<path d="M179.145 17.7578H271.98V38.095H202.683V73.3084H263.506V92.5158H202.683V152.209H179.145V17.7578Z" fill="#121212"/>
<path d="M278.905 17.7578H300.372V38.095H278.905V17.7578ZM278.905 54.8543H300.372V152.209H278.905V54.8543Z" fill="#121212"/>
<path d="M312.463 54.8543H332.8V69.1657L333.177 69.5423C336.441 64.1441 340.709 59.9386 345.982 56.9257C351.254 53.7873 357.092 52.218 363.494 52.218C374.165 52.218 382.576 54.9799 388.727 60.5035C394.879 66.0272 397.954 74.3127 397.954 85.3601V152.209H376.487V91.0093C376.236 83.3515 374.604 77.8278 371.592 74.4383C368.579 70.9232 363.871 69.1657 357.468 69.1657C353.828 69.1657 350.564 69.8561 347.676 71.2371C344.789 72.4924 342.341 74.3127 340.333 76.698C338.324 78.9576 336.755 81.6567 335.625 84.7952C334.495 87.9336 333.93 91.2604 333.93 94.7755V152.209H312.463V54.8543Z" fill="#121212"/>
<path d="M509.495 17.7578H530.962V152.209H509.495V17.7578Z" fill="#121212"/>
<path d="M540.735 54.8543H564.273L589.695 127.541H590.071L614.74 54.8543H637.148L599.298 157.482C597.541 161.876 595.783 166.081 594.026 170.098C592.394 174.116 590.322 177.631 587.812 180.644C585.426 183.782 582.413 186.23 578.773 187.988C575.132 189.871 570.487 190.812 564.838 190.812C559.817 190.812 554.858 190.436 549.962 189.682V171.605C551.719 171.856 553.414 172.107 555.046 172.358C556.678 172.735 558.373 172.923 560.13 172.923C562.641 172.923 564.713 172.609 566.345 171.981C567.977 171.354 569.295 170.412 570.299 169.157C571.429 168.027 572.37 166.646 573.124 165.014C573.877 163.382 574.567 161.499 575.195 159.365L577.643 151.833L540.735 54.8543Z" fill="#121212"/>
<path d="M659.661 120.95C660.289 127.227 662.674 131.621 666.817 134.132C670.96 136.642 675.918 137.898 681.693 137.898C683.702 137.898 685.961 137.772 688.472 137.521C691.108 137.145 693.556 136.517 695.816 135.638C698.076 134.759 699.896 133.504 701.277 131.872C702.783 130.114 703.474 127.855 703.348 125.093C703.223 122.331 702.219 120.071 700.335 118.314C698.452 116.556 696.004 115.175 692.991 114.171C690.104 113.041 686.777 112.1 683.011 111.346C679.245 110.593 675.416 109.777 671.524 108.898C667.507 108.02 663.616 106.953 659.849 105.697C656.209 104.442 652.882 102.747 649.869 100.613C646.982 98.4788 644.659 95.7798 642.902 92.5158C641.144 89.1262 640.265 84.9835 640.265 80.0875C640.265 74.8149 641.521 70.4211 644.032 66.906C646.668 63.2654 649.932 60.378 653.824 58.2439C657.841 55.9842 662.235 54.4149 667.005 53.5362C671.901 52.6574 676.546 52.218 680.94 52.218C685.961 52.218 690.732 52.7829 695.251 53.9128C699.896 54.9171 704.039 56.6119 707.679 58.9971C711.446 61.3823 714.521 64.5208 716.906 68.4124C719.417 72.1786 720.986 76.7607 721.614 82.1589H699.206C698.201 77.0118 695.816 73.5595 692.05 71.802C688.409 70.0444 684.204 69.1657 679.433 69.1657C677.927 69.1657 676.107 69.2912 673.972 69.5423C671.964 69.7934 670.018 70.2955 668.135 71.0487C666.377 71.6764 664.871 72.6807 663.616 74.0617C662.36 75.317 661.732 77.0118 661.732 79.146C661.732 81.7823 662.611 83.9164 664.369 85.5484C666.252 87.1804 668.637 88.5613 671.524 89.6912C674.537 90.6955 677.927 91.5742 681.693 92.3275C685.459 93.0807 689.351 93.8967 693.368 94.7755C697.26 95.6542 701.089 96.7213 704.855 97.9767C708.621 99.232 711.948 100.927 714.835 103.061C717.848 105.195 720.233 107.894 721.991 111.158C723.874 114.422 724.815 118.439 724.815 123.21C724.815 128.985 723.497 133.881 720.861 137.898C718.225 141.915 714.772 145.179 710.504 147.69C706.361 150.201 701.716 152.021 696.569 153.151C691.422 154.281 686.338 154.845 681.316 154.845C675.165 154.845 669.453 154.155 664.18 152.774C659.033 151.393 654.514 149.322 650.622 146.56C646.856 143.673 643.843 140.157 641.584 136.015C639.449 131.746 638.32 126.725 638.194 120.95H659.661Z" fill="#121212"/>
<path fill-rule="evenodd" clip-rule="evenodd" d="M474.825 142.982C470.557 147.125 465.284 150.138 459.007 152.021C452.856 153.904 446.893 154.845 441.118 154.845C436.724 154.845 432.519 154.218 428.501 152.962C424.484 151.833 420.906 150.138 417.768 147.878C414.755 145.493 412.307 142.543 410.424 139.028C408.666 135.387 407.788 131.181 407.788 126.411C407.788 120.385 408.855 115.489 410.989 111.723C413.249 107.957 416.136 105.007 419.651 102.873C423.292 100.739 427.309 99.2321 431.703 98.3533C436.222 97.349 440.741 96.5957 445.261 96.0936C449.152 95.3404 452.856 94.8382 456.371 94.5871C459.886 94.2105 462.962 93.6456 465.598 92.8924C468.36 92.1391 470.494 91.0093 472 89.5028C473.632 87.8708 474.448 85.4856 474.448 82.3472C474.448 79.5853 473.758 77.3257 472.377 75.5681C471.122 73.8106 469.49 72.4924 467.481 71.6137C465.598 70.6094 463.464 69.9817 461.079 69.7306C458.693 69.354 456.434 69.1657 454.3 69.1657C448.274 69.1657 443.315 70.4211 439.423 72.9318C435.532 75.4426 433.335 79.3343 432.833 84.6069H411.366C411.742 78.33 413.249 73.1201 415.885 68.9774C418.521 64.8346 421.848 61.5078 425.865 58.9971C430.008 56.4863 434.653 54.7288 439.8 53.7245C444.947 52.7202 450.22 52.218 455.618 52.218C460.388 52.218 465.096 52.7202 469.741 53.7245C474.386 54.7288 478.528 56.3608 482.169 58.6205C485.935 60.8802 488.948 63.8303 491.208 67.4709C493.467 70.986 494.597 75.317 494.597 80.4641V130.554V152.209H474.825V142.982ZM461.079 107.392C465.849 106.89 469.866 105.572 473.13 103.438V119.444C473.13 122.833 472.314 125.721 470.682 128.106C469.05 130.366 466.979 132.249 464.468 133.755C462.083 135.261 459.509 136.329 456.748 136.956C453.986 137.584 451.412 137.898 449.027 137.898C447.144 137.898 445.01 137.709 442.624 137.333C440.365 136.956 438.231 136.329 436.222 135.45C434.339 134.445 432.707 133.127 431.326 131.495C429.945 129.863 429.255 127.855 429.255 125.47C429.255 122.708 429.694 120.385 430.573 118.502C431.577 116.494 432.895 114.924 434.527 113.794C436.159 112.539 438.042 111.598 440.177 110.97C442.311 110.217 444.508 109.652 446.767 109.275C451.538 108.396 456.308 107.769 461.079 107.392Z" fill="#121212"/>
<path d="M738.634 54.8543V25.6667H760.101V54.8543H779.496V70.8604H760.101V122.833C760.101 125.093 760.163 127.039 760.289 128.671C760.54 130.303 760.979 131.684 761.607 132.813C762.36 133.943 763.427 134.822 764.808 135.45C766.189 135.952 768.072 136.203 770.458 136.203H774.977C776.483 136.077 777.99 135.826 779.496 135.45V152.021C777.111 152.272 774.789 152.523 772.529 152.774C770.269 153.025 767.947 153.151 765.562 153.151C759.912 153.151 755.33 152.649 751.815 151.644C748.426 150.514 745.727 148.945 743.718 146.937C741.835 144.802 740.517 142.166 739.763 139.028C739.136 135.889 738.759 132.311 738.634 128.294V70.8604V54.8543Z" fill="#121212"/>
</g>
<defs>
<clipPath id="clip0_35_921">
<rect width="779" height="192" fill="white"/>
</clipPath>
</defs>
</svg>
